<?xml version="1.0" encoding="UTF-8" standalone="no"?>
<!-- Created with Inkscape (http://www.inkscape.org/) -->

<svg
   xmlns:dc="http://purl.org/dc/elements/1.1/"
   xmlns:cc="http://creativecommons.org/ns#"
   xmlns:rdf="http://www.w3.org/1999/02/22-rdf-syntax-ns#"
   xmlns:svg="http://www.w3.org/2000/svg"
   xmlns="http://www.w3.org/2000/svg"
   xmlns:sodipodi="http://sodipodi.sourceforge.net/DTD/sodipodi-0.dtd"
   xmlns:inkscape="http://www.inkscape.org/namespaces/inkscape"
   width="210mm"
   height="297mm"
   viewBox="0 0 744.09448819 1052.3622047"
   id="svg2"
   version="1.1"
   inkscape:version="0.91 r13725"
   sodipodi:docname="xnova_logo.svg"
   inkscape:export-filename="V:\dev\python\xnovacmd\ui\i\xnova_logo.png"
   inkscape:export-xdpi="32.764484"
   inkscape:export-ydpi="32.764484">
  <defs
     id="defs4" />
  <sodipodi:namedview
     id="base"
     pagecolor="#ffffff"
     bordercolor="#666666"
     borderopacity="1.0"
     inkscape:pageopacity="0.0"
     inkscape:pageshadow="2"
     inkscape:zoom="0.7"
     inkscape:cx="412.0273"
     inkscape:cy="660.43055"
     inkscape:document-units="px"
     inkscape:current-layer="layer1"
     showgrid="false"
     inkscape:window-width="1920"
     inkscape:window-height="1018"
     inkscape:window-x="-8"
     inkscape:window-y="-8"
     inkscape:window-maximized="1"
     showguides="true"
     inkscape:guide-bbox="true">
    <sodipodi:guide
       position="0,0"
       orientation="0,744.09449"
       id="guide4886" />
    <sodipodi:guide
       position="744.09449,0"
       orientation="-1052.3622,0"
       id="guide4888" />
    <sodipodi:guide
       position="266.68027,455.57881"
       orientation="1,0"
       id="guide4896" />
  </sodipodi:namedview>
  <metadata
     id="metadata7">
    <rdf:RDF>
      <cc:Work
         rdf:about="">
        <dc:format>image/svg+xml</dc:format>
        <dc:type
           rdf:resource="http://purl.org/dc/dcmitype/StillImage" />
        <dc:title />
      </cc:Work>
    </rdf:RDF>
  </metadata>
  <g
     inkscape:label="Layer 1"
     inkscape:groupmode="layer"
     id="layer1">
    <g
       id="g4965"
       transform="matrix(3.9029982,0,0,3.9029982,-1016.0494,-2342.1738)">
      <g
         id="g4908">
        <rect
           style="fill:#000077;fill-opacity:1;stroke:#000000;stroke-width:0.57631069;stroke-miterlimit:4;stroke-dasharray:none;stroke-opacity:1"
           id="rect3346-9"
           width="179.30582"
           height="186.29175"
           x="266.77567"
           y="604.57349" />
        <path
           style="fill:#ffffff;fill-opacity:1;stroke:#000000;stroke-width:0.57631069;stroke-miterlimit:4;stroke-dasharray:none;stroke-opacity:1"
           d="m 267.18359,604.23438 0,17.43164 a 93.390656,93.390656 0 0 1 39.7793,76.41015 93.390656,93.390656 0 0 1 -39.7793,76.33203 l 0,16.11719 16.20118,0 a 93.390656,93.390656 0 0 1 72.33007,-34.41016 93.390656,93.390656 0 0 1 72.33985,34.41016 l 18.43359,0 0,-16.97656 a 93.390656,93.390656 0 0 1 -40.95117,-77.25781 93.390656,93.390656 0 0 1 40.95117,-77.16993 l 0,-14.88671 -14.8418,0 A 93.390656,93.390656 0 0 1 355,644.32422 93.390656,93.390656 0 0 1 278.44531,604.23438 l -11.26172,0 z"
           id="rect3346"
           inkscape:connector-curvature="0" />
      </g>
      <g
         transform="translate(-181.68208,9.0047155)"
         id="g4961">
        <path
           style="fill:#000077;fill-opacity:1;stroke:none;stroke-width:2.602;stroke-miterlimit:4;stroke-dasharray:none;stroke-opacity:1"
           d="m 582.85533,641.46239 a 157.54341,147.40572 0 0 0 -57.48369,41.90789 157.54341,147.40572 0 0 0 -30.28746,59.18146 157.54341,147.40572 0 0 0 57.47829,-41.91189 157.54341,147.40572 0 0 0 30.29286,-59.17746 z"
           id="path4912"
           inkscape:connector-curvature="0" />
        <path
           style="fill:#000077;fill-opacity:1;stroke:none;stroke-width:2.602;stroke-miterlimit:4;stroke-dasharray:none;stroke-opacity:1"
           d="m 495.04299,641.10325 a 157.54341,147.40572 0 0 1 57.48369,41.90789 157.54341,147.40572 0 0 1 30.28746,59.18146 157.54341,147.40572 0 0 1 -57.47829,-41.91189 157.54341,147.40572 0 0 1 -30.29286,-59.17746 z"
           id="path4912-9"
           inkscape:connector-curvature="0" />
      </g>
    </g>
  </g>
</svg>
